<mxfile host="app.diagrams.net" modified="2024-05-20T11:07:05.860Z" agent="Mozilla/5.0 (Macintosh; Intel Mac OS X 10_15_7) AppleWebKit/537.36 (KHTML, like Gecko) Chrome/124.0.0.0 Safari/537.36" etag="EjYfnDaTi9ZMEx6ZHaPU" version="24.0.1" type="github">
  <diagram name="第 1 页" id="SFo6EVD3lCYizD3O0nEO">
    <mxGraphModel dx="2074" dy="1121" grid="1" gridSize="10" guides="1" tooltips="1" connect="1" arrows="1" fold="1" page="1" pageScale="1" pageWidth="3300" pageHeight="4681" math="0" shadow="0">
      <root>
        <mxCell id="0" />
        <mxCell id="1" parent="0" />
        <mxCell id="TXQYcuoiy-pk4226gjFW-22" value="" style="group" vertex="1" connectable="0" parent="1">
          <mxGeometry x="500" y="180" width="540" height="310" as="geometry" />
        </mxCell>
        <mxCell id="TXQYcuoiy-pk4226gjFW-19" value="" style="rounded=0;whiteSpace=wrap;html=1;dashed=1;dashPattern=12 12;" vertex="1" parent="TXQYcuoiy-pk4226gjFW-22">
          <mxGeometry width="540" height="310" as="geometry" />
        </mxCell>
        <mxCell id="TXQYcuoiy-pk4226gjFW-20" value="&lt;font style=&quot;font-size: 15px;&quot;&gt;&lt;b&gt;golang server&lt;/b&gt;&lt;/font&gt;" style="text;strokeColor=none;fillColor=none;align=left;verticalAlign=middle;spacingLeft=4;spacingRight=4;overflow=hidden;points=[[0,0.5],[1,0.5]];portConstraint=eastwest;rotatable=0;whiteSpace=wrap;html=1;strokeWidth=5;" vertex="1" parent="TXQYcuoiy-pk4226gjFW-22">
          <mxGeometry y="280" width="140" height="30" as="geometry" />
        </mxCell>
        <mxCell id="TXQYcuoiy-pk4226gjFW-26" value="查询 redis" style="rounded=0;whiteSpace=wrap;html=1;" vertex="1" parent="TXQYcuoiy-pk4226gjFW-22">
          <mxGeometry x="210" y="50" width="120" height="60" as="geometry" />
        </mxCell>
        <mxCell id="TXQYcuoiy-pk4226gjFW-27" value="是否命中" style="rhombus;whiteSpace=wrap;html=1;" vertex="1" parent="TXQYcuoiy-pk4226gjFW-22">
          <mxGeometry x="220" y="150" width="100" height="80" as="geometry" />
        </mxCell>
        <mxCell id="TXQYcuoiy-pk4226gjFW-30" value="" style="endArrow=classic;html=1;rounded=0;exitX=0.5;exitY=1;exitDx=0;exitDy=0;entryX=0.5;entryY=0;entryDx=0;entryDy=0;" edge="1" parent="TXQYcuoiy-pk4226gjFW-22" source="TXQYcuoiy-pk4226gjFW-26" target="TXQYcuoiy-pk4226gjFW-27">
          <mxGeometry width="50" height="50" relative="1" as="geometry">
            <mxPoint x="450" y="170" as="sourcePoint" />
            <mxPoint x="360" y="100" as="targetPoint" />
          </mxGeometry>
        </mxCell>
        <mxCell id="TXQYcuoiy-pk4226gjFW-31" value="" style="endArrow=classic;html=1;rounded=0;exitX=0;exitY=0.5;exitDx=0;exitDy=0;" edge="1" parent="TXQYcuoiy-pk4226gjFW-22" source="TXQYcuoiy-pk4226gjFW-27">
          <mxGeometry width="50" height="50" relative="1" as="geometry">
            <mxPoint x="150" y="220" as="sourcePoint" />
            <mxPoint x="270" y="20" as="targetPoint" />
            <Array as="points">
              <mxPoint x="160" y="190" />
              <mxPoint x="160" y="20" />
            </Array>
          </mxGeometry>
        </mxCell>
        <mxCell id="TXQYcuoiy-pk4226gjFW-32" value="是" style="edgeLabel;html=1;align=center;verticalAlign=middle;resizable=0;points=[];" vertex="1" connectable="0" parent="TXQYcuoiy-pk4226gjFW-31">
          <mxGeometry x="-0.8235" y="-3" relative="1" as="geometry">
            <mxPoint y="-7" as="offset" />
          </mxGeometry>
        </mxCell>
        <mxCell id="TXQYcuoiy-pk4226gjFW-33" value="数据入送检队列:&amp;nbsp;task_input_list_key&amp;nbsp;&amp;nbsp;" style="rounded=0;whiteSpace=wrap;html=1;" vertex="1" parent="TXQYcuoiy-pk4226gjFW-22">
          <mxGeometry x="360" y="160" width="160" height="60" as="geometry" />
        </mxCell>
        <mxCell id="TXQYcuoiy-pk4226gjFW-34" value="否" style="endArrow=classic;html=1;rounded=0;exitX=1;exitY=0.5;exitDx=0;exitDy=0;entryX=0;entryY=0.5;entryDx=0;entryDy=0;" edge="1" parent="TXQYcuoiy-pk4226gjFW-22" source="TXQYcuoiy-pk4226gjFW-27" target="TXQYcuoiy-pk4226gjFW-33">
          <mxGeometry y="10" width="50" height="50" relative="1" as="geometry">
            <mxPoint x="350" y="300" as="sourcePoint" />
            <mxPoint x="400" y="250" as="targetPoint" />
            <mxPoint as="offset" />
          </mxGeometry>
        </mxCell>
        <mxCell id="TXQYcuoiy-pk4226gjFW-6" value="" style="shape=umlActor;verticalLabelPosition=bottom;verticalAlign=top;html=1;outlineConnect=0;" vertex="1" parent="1">
          <mxGeometry x="755" y="90" width="30" height="60" as="geometry" />
        </mxCell>
        <mxCell id="TXQYcuoiy-pk4226gjFW-14" value="" style="endArrow=classic;startArrow=classic;html=1;rounded=0;" edge="1" parent="1" source="TXQYcuoiy-pk4226gjFW-26" target="TXQYcuoiy-pk4226gjFW-6">
          <mxGeometry width="50" height="50" relative="1" as="geometry">
            <mxPoint x="1590" y="-170" as="sourcePoint" />
            <mxPoint x="1620" y="-230" as="targetPoint" />
          </mxGeometry>
        </mxCell>
        <mxCell id="TXQYcuoiy-pk4226gjFW-23" value="Client" style="edgeLabel;html=1;align=center;verticalAlign=middle;resizable=0;points=[];" vertex="1" connectable="0" parent="TXQYcuoiy-pk4226gjFW-14">
          <mxGeometry x="0.1636" relative="1" as="geometry">
            <mxPoint x="15" y="3" as="offset" />
          </mxGeometry>
        </mxCell>
        <mxCell id="TXQYcuoiy-pk4226gjFW-21" value="redis 数据库" style="rounded=0;whiteSpace=wrap;html=1;" vertex="1" parent="1">
          <mxGeometry x="1130" y="340" width="180" height="60" as="geometry" />
        </mxCell>
        <mxCell id="TXQYcuoiy-pk4226gjFW-29" value="" style="edgeStyle=orthogonalEdgeStyle;rounded=0;orthogonalLoop=1;jettySize=auto;html=1;" edge="1" parent="1" source="TXQYcuoiy-pk4226gjFW-19" target="TXQYcuoiy-pk4226gjFW-6">
          <mxGeometry relative="1" as="geometry" />
        </mxCell>
        <mxCell id="TXQYcuoiy-pk4226gjFW-35" value="" style="endArrow=classic;html=1;rounded=0;exitX=1;exitY=0.5;exitDx=0;exitDy=0;entryX=0;entryY=0.5;entryDx=0;entryDy=0;" edge="1" parent="1" source="TXQYcuoiy-pk4226gjFW-33" target="TXQYcuoiy-pk4226gjFW-21">
          <mxGeometry width="50" height="50" relative="1" as="geometry">
            <mxPoint x="1210" y="550" as="sourcePoint" />
            <mxPoint x="1260" y="500" as="targetPoint" />
          </mxGeometry>
        </mxCell>
      </root>
    </mxGraphModel>
  </diagram>
</mxfile>
